<svg width="24" height="25" viewBox="0 0 24 25" xmlns="http://www.w3.org/2000/svg">
<path fill-rule="evenodd" clip-rule="evenodd" d="M1 2.00055C1.55228 2.00055 2 2.44826 2 3.00055V24.0005C2 24.5528 1.55228 25.0005 1 25.0005C0.447715 25.0005 0 24.5528 0 24.0005V3.00055C0 2.44826 0.447715 2.00055 1 2.00055Z"/>
<path fill-rule="evenodd" clip-rule="evenodd" d="M17.4153 3.69335C18.983 3.85553 20.6059 3.54608 22.3999 2.20054C22.703 1.97328 23.1084 1.93672 23.4472 2.10611C23.7859 2.2755 23.9999 2.62177 23.9999 3.00054V18.0005C23.9999 18.3153 23.8517 18.6117 23.5999 18.8005C21.394 20.455 19.2668 20.8956 17.2095 20.6827C15.245 20.4795 13.3765 19.6786 11.674 18.9488L11.606 18.9197C9.82664 18.1571 8.21885 17.4768 6.58454 17.3077C5.01683 17.1456 3.39399 17.455 1.59994 18.8005C1.15811 19.1319 0.531308 19.0424 0.199937 18.6005C-0.131434 18.1587 -0.041891 17.5319 0.399937 17.2005C2.60588 15.5461 4.73305 15.1055 6.79034 15.3183C8.75483 15.5216 10.6234 16.3225 12.3258 17.0522L12.3939 17.0814C14.1732 17.844 15.781 18.5243 17.4153 18.6933C18.8657 18.8434 20.3633 18.5898 21.9999 17.4855V4.80252C20.3606 5.63102 18.7651 5.84365 17.2095 5.68273C15.245 5.47951 13.3765 4.67856 11.674 3.94884L11.606 3.91968C9.82664 3.15709 8.21885 2.4768 6.58454 2.30773C5.01683 2.14555 3.39399 2.455 1.59994 3.80054C1.15811 4.13191 0.531308 4.04237 0.199937 3.60054C-0.131434 3.15871 -0.041891 2.53191 0.399937 2.20054C2.60588 0.546082 4.73305 0.105525 6.79034 0.318348C8.75483 0.521572 10.6234 1.32252 12.3258 2.05224L12.3939 2.08139C14.1732 2.84399 15.781 3.52428 17.4153 3.69335Z"/>
</svg>
