<svg width="31" height="21" viewBox="0 0 31 21" xmlns="http://www.w3.org/2000/svg">
<path fill-rule="evenodd" clip-rule="evenodd" d="M10 3C6.96243 3 4.5 5.46243 4.5 8.5C4.5 11.5376 6.96243 14 10 14C13.0376 14 15.5 11.5376 15.5 8.5C15.5 5.46243 13.0376 3 10 3ZM2.5 8.5C2.5 4.35786 5.85786 1 10 1C14.1421 1 17.5 4.35786 17.5 8.5C17.5 12.6421 14.1421 16 10 16C5.85786 16 2.5 12.6421 2.5 8.5Z"/>
<path fill-rule="evenodd" clip-rule="evenodd" d="M21.0245 3.06228C20.2476 2.94297 19.4542 2.99153 18.6977 3.20467C18.1661 3.35445 17.6138 3.04493 17.464 2.51334C17.3142 1.98175 17.6237 1.4294 18.1553 1.27962C19.1869 0.988983 20.2687 0.922773 21.328 1.08545C22.3873 1.24813 23.3995 1.63592 24.2963 2.22271C25.1931 2.80949 25.9537 3.58164 26.527 4.48715C27.1002 5.39266 27.4728 6.4105 27.6196 7.47212C27.7663 8.53373 27.6839 9.61448 27.3778 10.6415C27.0717 11.6686 26.5491 12.6182 25.8451 13.4263C25.1411 14.2343 24.2722 14.8822 23.2967 15.3261C22.3213 15.7701 21.2621 15.9999 20.1903 16C19.6381 16.0001 19.1903 15.5524 19.1902 15.0001C19.1902 14.4479 19.6378 14.0001 20.1901 14C20.9761 13.9999 21.7529 13.8314 22.4682 13.5058C23.1835 13.1802 23.8208 12.7051 24.3371 12.1125C24.8533 11.5199 25.2366 10.8235 25.4611 10.0703C25.6856 9.31712 25.746 8.52455 25.6384 7.746C25.5308 6.96745 25.2575 6.22101 24.8371 5.55694C24.4167 4.89288 23.8589 4.32662 23.2012 3.89629C22.5436 3.46597 21.8013 3.18158 21.0245 3.06228Z"/>
<path fill-rule="evenodd" clip-rule="evenodd" d="M9.99974 16C8.39504 16.0001 6.81391 16.3862 5.38984 17.1259C3.96576 17.8655 2.74056 18.937 1.81766 20.2497C1.50003 20.7015 0.876281 20.8103 0.424474 20.4927C-0.0273322 20.175 -0.136103 19.5513 0.181528 19.0995C1.28897 17.5242 2.75916 16.2385 4.46798 15.351C6.1768 14.4634 8.07409 14.0001 9.99966 14C11.9252 13.9999 13.8226 14.4632 15.5314 15.3506C17.2403 16.238 18.7106 17.5236 19.8182 19.0987C20.1359 19.5505 20.0271 20.1743 19.5753 20.4919C19.1236 20.8096 18.4998 20.7009 18.1821 20.2491C17.2591 18.9364 16.0339 17.8651 14.6097 17.1255C13.1856 16.386 11.6044 15.9999 9.99974 16Z"/>
<path fill-rule="evenodd" clip-rule="evenodd" d="M24.8011 17.1239C23.3771 16.3843 21.7958 15.9988 20.1912 16C19.6389 16.0004 19.1908 15.553 19.1904 15.0007C19.19 14.4484 19.6374 14.0004 20.1897 14C22.1157 13.9986 24.0136 14.4613 25.7229 15.349C27.4321 16.2366 28.9023 17.523 30.0089 19.0993C30.3262 19.5513 30.2171 20.175 29.7651 20.4923C29.313 20.8097 28.6894 20.7005 28.372 20.2485C27.45 18.9352 26.2251 17.8634 24.8011 17.1239Z"/>
</svg>
